<mxfile host="app.diagrams.net" modified="2020-09-11T04:45:58.011Z" agent="5.0 (Windows NT 10.0; Win64; x64) AppleWebKit/537.36 (KHTML, like Gecko) Chrome/85.0.4183.83 Safari/537.36 Edg/85.0.564.44" etag="_SLl0sX8jDyWMDgkPOKu" version="13.6.9" type="github">
  <diagram id="57E7L2sCD_D05L8Hxm7o" name="Page-1">
    <mxGraphModel dx="1038" dy="540" grid="1" gridSize="10" guides="1" tooltips="1" connect="1" arrows="1" fold="1" page="1" pageScale="1" pageWidth="850" pageHeight="1100" math="0" shadow="0">
      <root>
        <mxCell id="0" />
        <mxCell id="1" parent="0" />
        <mxCell id="AqXAOichn9QFWr-ijvlr-8" value="" style="group" parent="1" vertex="1" connectable="0">
          <mxGeometry x="350" y="340" width="80" height="130" as="geometry" />
        </mxCell>
        <mxCell id="AqXAOichn9QFWr-ijvlr-6" value="&lt;b&gt;&lt;u&gt;Title&lt;br&gt;Year of Release&lt;/u&gt;&lt;/b&gt;&lt;br&gt;length in Minute&lt;br&gt;Plot Outline" style="shape=internalStorage;whiteSpace=wrap;html=1;backgroundOutline=1;dx=0;dy=20;" parent="AqXAOichn9QFWr-ijvlr-8" vertex="1">
          <mxGeometry y="-11.818181818181818" width="80" height="141.8181818181818" as="geometry" />
        </mxCell>
        <mxCell id="AqXAOichn9QFWr-ijvlr-7" value="Movie" style="text;html=1;strokeColor=none;fillColor=none;align=center;verticalAlign=middle;whiteSpace=wrap;rounded=0;" parent="AqXAOichn9QFWr-ijvlr-8" vertex="1">
          <mxGeometry x="20" y="-11.818181818181818" width="40" height="23.636363636363637" as="geometry" />
        </mxCell>
        <mxCell id="AqXAOichn9QFWr-ijvlr-12" value="" style="group" parent="1" vertex="1" connectable="0">
          <mxGeometry x="620" y="344.09" width="80" height="110" as="geometry" />
        </mxCell>
        <mxCell id="AqXAOichn9QFWr-ijvlr-9" value="&lt;b&gt;&lt;u&gt;Name&lt;br&gt;&lt;br&gt;Date of Birth&lt;/u&gt;&lt;/b&gt;" style="shape=internalStorage;whiteSpace=wrap;html=1;backgroundOutline=1;dx=0;dy=20;" parent="AqXAOichn9QFWr-ijvlr-12" vertex="1">
          <mxGeometry width="80" height="110" as="geometry" />
        </mxCell>
        <mxCell id="AqXAOichn9QFWr-ijvlr-10" value="Actor" style="text;html=1;strokeColor=none;fillColor=none;align=center;verticalAlign=middle;whiteSpace=wrap;rounded=0;" parent="AqXAOichn9QFWr-ijvlr-12" vertex="1">
          <mxGeometry x="20" width="40" height="20" as="geometry" />
        </mxCell>
        <mxCell id="AqXAOichn9QFWr-ijvlr-13" value="Perform" style="rhombus;whiteSpace=wrap;html=1;" parent="1" vertex="1">
          <mxGeometry x="490" y="405" width="60" height="65" as="geometry" />
        </mxCell>
        <mxCell id="AqXAOichn9QFWr-ijvlr-16" value="" style="shape=link;html=1;entryX=0;entryY=0.5;entryDx=0;entryDy=0;exitX=1;exitY=0.5;exitDx=0;exitDy=0;" parent="1" source="AqXAOichn9QFWr-ijvlr-6" target="AqXAOichn9QFWr-ijvlr-13" edge="1">
          <mxGeometry width="100" relative="1" as="geometry">
            <mxPoint x="350" y="530" as="sourcePoint" />
            <mxPoint x="450" y="530" as="targetPoint" />
          </mxGeometry>
        </mxCell>
        <mxCell id="AqXAOichn9QFWr-ijvlr-17" value="" style="shape=link;html=1;exitX=1;exitY=0.5;exitDx=0;exitDy=0;entryX=0;entryY=0.5;entryDx=0;entryDy=0;" parent="1" source="AqXAOichn9QFWr-ijvlr-13" target="AqXAOichn9QFWr-ijvlr-9" edge="1">
          <mxGeometry width="100" relative="1" as="geometry">
            <mxPoint x="560" y="395" as="sourcePoint" />
            <mxPoint x="620" y="394.5" as="targetPoint" />
          </mxGeometry>
        </mxCell>
        <mxCell id="AqXAOichn9QFWr-ijvlr-19" value="M" style="text;html=1;strokeColor=none;fillColor=none;align=center;verticalAlign=middle;whiteSpace=wrap;rounded=0;" parent="1" vertex="1">
          <mxGeometry x="430" y="409.09" width="40" height="20" as="geometry" />
        </mxCell>
        <mxCell id="AqXAOichn9QFWr-ijvlr-20" value="N" style="text;html=1;strokeColor=none;fillColor=none;align=center;verticalAlign=middle;whiteSpace=wrap;rounded=0;" parent="1" vertex="1">
          <mxGeometry x="570" y="416.59000000000003" width="40" height="20" as="geometry" />
        </mxCell>
        <mxCell id="AqXAOichn9QFWr-ijvlr-21" value="" style="endArrow=none;html=1;entryX=0;entryY=0.5;entryDx=0;entryDy=0;exitX=1;exitY=0.5;exitDx=0;exitDy=0;" parent="1" source="AqXAOichn9QFWr-ijvlr-22" target="AqXAOichn9QFWr-ijvlr-6" edge="1">
          <mxGeometry width="50" height="50" relative="1" as="geometry">
            <mxPoint x="280" y="395" as="sourcePoint" />
            <mxPoint x="580" y="510" as="targetPoint" />
          </mxGeometry>
        </mxCell>
        <mxCell id="AqXAOichn9QFWr-ijvlr-22" value="Classify" style="rhombus;whiteSpace=wrap;html=1;" parent="1" vertex="1">
          <mxGeometry x="250" y="369.09" width="60" height="60" as="geometry" />
        </mxCell>
        <mxCell id="AqXAOichn9QFWr-ijvlr-23" value="" style="shape=link;html=1;exitX=1;exitY=0.5;exitDx=0;exitDy=0;entryX=0;entryY=0.5;entryDx=0;entryDy=0;" parent="1" source="AqXAOichn9QFWr-ijvlr-25" target="AqXAOichn9QFWr-ijvlr-22" edge="1">
          <mxGeometry width="100" relative="1" as="geometry">
            <mxPoint x="200" y="395" as="sourcePoint" />
            <mxPoint x="250" y="394.5" as="targetPoint" />
          </mxGeometry>
        </mxCell>
        <mxCell id="AqXAOichn9QFWr-ijvlr-24" value="1" style="text;html=1;strokeColor=none;fillColor=none;align=center;verticalAlign=middle;whiteSpace=wrap;rounded=0;" parent="1" vertex="1">
          <mxGeometry x="310" y="374.09" width="40" height="20" as="geometry" />
        </mxCell>
        <mxCell id="AqXAOichn9QFWr-ijvlr-25" value="Genre" style="whiteSpace=wrap;html=1;aspect=fixed;" parent="1" vertex="1">
          <mxGeometry x="140" y="374.09" width="50" height="50" as="geometry" />
        </mxCell>
        <mxCell id="AqXAOichn9QFWr-ijvlr-26" value="M" style="text;html=1;strokeColor=none;fillColor=none;align=center;verticalAlign=middle;whiteSpace=wrap;rounded=0;" parent="1" vertex="1">
          <mxGeometry x="200" y="374.09" width="40" height="20" as="geometry" />
        </mxCell>
        <mxCell id="AqXAOichn9QFWr-ijvlr-27" value="" style="group" parent="1" vertex="1" connectable="0">
          <mxGeometry x="580" y="600" width="80" height="110" as="geometry" />
        </mxCell>
        <mxCell id="AqXAOichn9QFWr-ijvlr-28" value="&lt;b&gt;&lt;u&gt;Name&lt;br&gt;&lt;br&gt;Date of Birth&lt;/u&gt;&lt;/b&gt;" style="shape=internalStorage;whiteSpace=wrap;html=1;backgroundOutline=1;dx=0;dy=20;" parent="AqXAOichn9QFWr-ijvlr-27" vertex="1">
          <mxGeometry width="80" height="110" as="geometry" />
        </mxCell>
        <mxCell id="AqXAOichn9QFWr-ijvlr-29" value="Director" style="text;html=1;strokeColor=none;fillColor=none;align=center;verticalAlign=middle;whiteSpace=wrap;rounded=0;" parent="AqXAOichn9QFWr-ijvlr-27" vertex="1">
          <mxGeometry x="20" width="40" height="20" as="geometry" />
        </mxCell>
        <mxCell id="AqXAOichn9QFWr-ijvlr-30" value="Direct" style="rhombus;whiteSpace=wrap;html=1;" parent="1" vertex="1">
          <mxGeometry x="480" y="490" width="60" height="65" as="geometry" />
        </mxCell>
        <mxCell id="AqXAOichn9QFWr-ijvlr-31" value="" style="shape=link;html=1;entryX=0;entryY=0;entryDx=0;entryDy=0;exitX=1;exitY=1;exitDx=0;exitDy=0;" parent="1" source="AqXAOichn9QFWr-ijvlr-6" target="AqXAOichn9QFWr-ijvlr-30" edge="1">
          <mxGeometry width="100" relative="1" as="geometry">
            <mxPoint x="430" y="525" as="sourcePoint" />
            <mxPoint x="450" y="660" as="targetPoint" />
          </mxGeometry>
        </mxCell>
        <mxCell id="AqXAOichn9QFWr-ijvlr-32" value="" style="shape=link;html=1;entryX=0;entryY=0.5;entryDx=0;entryDy=0;" parent="1" source="AqXAOichn9QFWr-ijvlr-30" target="AqXAOichn9QFWr-ijvlr-28" edge="1">
          <mxGeometry width="100" relative="1" as="geometry">
            <mxPoint x="520" y="539" as="sourcePoint" />
            <mxPoint x="590" y="580" as="targetPoint" />
          </mxGeometry>
        </mxCell>
        <mxCell id="AqXAOichn9QFWr-ijvlr-33" value="M" style="text;html=1;strokeColor=none;fillColor=none;align=center;verticalAlign=middle;whiteSpace=wrap;rounded=0;" parent="1" vertex="1">
          <mxGeometry x="450" y="470" width="40" height="20" as="geometry" />
        </mxCell>
        <mxCell id="AqXAOichn9QFWr-ijvlr-34" value="N" style="text;html=1;strokeColor=none;fillColor=none;align=center;verticalAlign=middle;whiteSpace=wrap;rounded=0;" parent="1" vertex="1">
          <mxGeometry x="540" y="570" width="40" height="20" as="geometry" />
        </mxCell>
        <mxCell id="AqXAOichn9QFWr-ijvlr-42" value="" style="group" parent="1" vertex="1" connectable="0">
          <mxGeometry x="415" y="545" width="70" height="70" as="geometry" />
        </mxCell>
        <mxCell id="AqXAOichn9QFWr-ijvlr-41" value="" style="rhombus;whiteSpace=wrap;html=1;rounded=0;shadow=0;sketch=0;" parent="AqXAOichn9QFWr-ijvlr-42" vertex="1">
          <mxGeometry width="70" height="70" as="geometry" />
        </mxCell>
        <mxCell id="AqXAOichn9QFWr-ijvlr-40" value="Perform" style="rhombus;whiteSpace=wrap;html=1;perimeterSpacing=0;shadow=0;rounded=0;" parent="AqXAOichn9QFWr-ijvlr-42" vertex="1">
          <mxGeometry x="5" y="2.5" width="60" height="65" as="geometry" />
        </mxCell>
        <mxCell id="AqXAOichn9QFWr-ijvlr-50" value="0,N" style="text;html=1;strokeColor=none;fillColor=none;align=center;verticalAlign=middle;whiteSpace=wrap;rounded=0;shadow=0;sketch=0;" parent="1" vertex="1">
          <mxGeometry x="485" y="620" width="40" height="20" as="geometry" />
        </mxCell>
        <mxCell id="AqXAOichn9QFWr-ijvlr-51" value="" style="shape=link;html=1;exitX=1;exitY=1;exitDx=0;exitDy=0;entryX=0;entryY=0;entryDx=0;entryDy=0;" parent="1" source="AqXAOichn9QFWr-ijvlr-6" target="AqXAOichn9QFWr-ijvlr-40" edge="1">
          <mxGeometry width="100" relative="1" as="geometry">
            <mxPoint x="380" y="540" as="sourcePoint" />
            <mxPoint x="450" y="540" as="targetPoint" />
          </mxGeometry>
        </mxCell>
        <mxCell id="AqXAOichn9QFWr-ijvlr-52" value="M" style="text;html=1;strokeColor=none;fillColor=none;align=center;verticalAlign=middle;whiteSpace=wrap;rounded=0;shadow=0;sketch=0;" parent="1" vertex="1">
          <mxGeometry x="400" y="500" width="40" height="20" as="geometry" />
        </mxCell>
        <mxCell id="AqXAOichn9QFWr-ijvlr-58" value="" style="endArrow=none;html=1;exitX=0.5;exitY=0;exitDx=0;exitDy=0;entryX=0.5;entryY=1;entryDx=0;entryDy=0;" parent="1" source="AqXAOichn9QFWr-ijvlr-7" target="AqXAOichn9QFWr-ijvlr-67" edge="1">
          <mxGeometry width="50" height="50" relative="1" as="geometry">
            <mxPoint x="350" y="300" as="sourcePoint" />
            <mxPoint x="480" y="310" as="targetPoint" />
          </mxGeometry>
        </mxCell>
        <mxCell id="AqXAOichn9QFWr-ijvlr-64" value="0,N" style="text;html=1;strokeColor=none;fillColor=none;align=center;verticalAlign=middle;whiteSpace=wrap;rounded=0;shadow=0;sketch=0;" parent="1" vertex="1">
          <mxGeometry x="540" y="200" width="40" height="20" as="geometry" />
        </mxCell>
        <mxCell id="AqXAOichn9QFWr-ijvlr-66" value="" style="group" parent="1" vertex="1" connectable="0">
          <mxGeometry x="355" y="165" width="70" height="70" as="geometry" />
        </mxCell>
        <mxCell id="AqXAOichn9QFWr-ijvlr-67" value="" style="rhombus;whiteSpace=wrap;html=1;rounded=0;shadow=0;sketch=0;" parent="AqXAOichn9QFWr-ijvlr-66" vertex="1">
          <mxGeometry width="70" height="70" as="geometry" />
        </mxCell>
        <mxCell id="AqXAOichn9QFWr-ijvlr-68" value="Contain" style="rhombus;whiteSpace=wrap;html=1;perimeterSpacing=0;shadow=0;rounded=0;" parent="AqXAOichn9QFWr-ijvlr-66" vertex="1">
          <mxGeometry x="5" y="2.5" width="60" height="65" as="geometry" />
        </mxCell>
        <mxCell id="AqXAOichn9QFWr-ijvlr-72" value="" style="group" parent="1" vertex="1" connectable="0">
          <mxGeometry x="625" y="180" width="70" height="40" as="geometry" />
        </mxCell>
        <mxCell id="AqXAOichn9QFWr-ijvlr-71" value="" style="rounded=0;whiteSpace=wrap;html=1;shadow=0;sketch=0;" parent="AqXAOichn9QFWr-ijvlr-72" vertex="1">
          <mxGeometry width="70" height="40" as="geometry" />
        </mxCell>
        <mxCell id="AqXAOichn9QFWr-ijvlr-60" value="Quote" style="rounded=0;whiteSpace=wrap;html=1;shadow=0;sketch=0;" parent="AqXAOichn9QFWr-ijvlr-72" vertex="1">
          <mxGeometry x="5" y="5" width="60" height="30" as="geometry" />
        </mxCell>
        <mxCell id="AqXAOichn9QFWr-ijvlr-73" value="1" style="text;html=1;strokeColor=none;fillColor=none;align=center;verticalAlign=middle;whiteSpace=wrap;rounded=0;shadow=0;sketch=0;" parent="1" vertex="1">
          <mxGeometry x="385" y="290" width="40" height="20" as="geometry" />
        </mxCell>
        <mxCell id="AqXAOichn9QFWr-ijvlr-75" value="Speak" style="rhombus;whiteSpace=wrap;html=1;" parent="1" vertex="1">
          <mxGeometry x="630" y="250" width="60" height="60" as="geometry" />
        </mxCell>
        <mxCell id="AqXAOichn9QFWr-ijvlr-77" value="1" style="text;html=1;strokeColor=none;fillColor=none;align=center;verticalAlign=middle;whiteSpace=wrap;rounded=0;shadow=0;sketch=0;" parent="1" vertex="1">
          <mxGeometry x="660" y="310" width="40" height="20" as="geometry" />
        </mxCell>
        <mxCell id="AqXAOichn9QFWr-ijvlr-78" value="1,N" style="text;html=1;strokeColor=none;fillColor=none;align=center;verticalAlign=middle;whiteSpace=wrap;rounded=0;shadow=0;sketch=0;" parent="1" vertex="1">
          <mxGeometry x="660" y="230" width="40" height="20" as="geometry" />
        </mxCell>
        <mxCell id="AqXAOichn9QFWr-ijvlr-81" value="Role" style="rhombus;whiteSpace=wrap;html=1;" parent="1" vertex="1">
          <mxGeometry x="490" y="330" width="60" height="65" as="geometry" />
        </mxCell>
        <mxCell id="AqXAOichn9QFWr-ijvlr-84" value="1" style="text;html=1;strokeColor=none;fillColor=none;align=center;verticalAlign=middle;whiteSpace=wrap;rounded=0;shadow=0;sketch=0;" parent="1" vertex="1">
          <mxGeometry x="440" y="349.09000000000003" width="40" height="20" as="geometry" />
        </mxCell>
        <mxCell id="AqXAOichn9QFWr-ijvlr-85" value="1" style="text;html=1;strokeColor=none;fillColor=none;align=center;verticalAlign=middle;whiteSpace=wrap;rounded=0;shadow=0;sketch=0;" parent="1" vertex="1">
          <mxGeometry x="570" y="354.09" width="40" height="20" as="geometry" />
        </mxCell>
        <mxCell id="AqXAOichn9QFWr-ijvlr-88" value="Produce" style="rhombus;whiteSpace=wrap;html=1;" parent="1" vertex="1">
          <mxGeometry x="270" y="485" width="60" height="60" as="geometry" />
        </mxCell>
        <mxCell id="AqXAOichn9QFWr-ijvlr-90" value="" style="shape=link;html=1;entryX=0;entryY=1;entryDx=0;entryDy=0;exitX=1;exitY=0;exitDx=0;exitDy=0;" parent="1" source="AqXAOichn9QFWr-ijvlr-88" target="AqXAOichn9QFWr-ijvlr-6" edge="1">
          <mxGeometry width="100" relative="1" as="geometry">
            <mxPoint x="320" y="500" as="sourcePoint" />
            <mxPoint x="420" y="500" as="targetPoint" />
          </mxGeometry>
        </mxCell>
        <mxCell id="AqXAOichn9QFWr-ijvlr-94" value="1" style="text;html=1;strokeColor=none;fillColor=none;align=center;verticalAlign=middle;whiteSpace=wrap;rounded=0;shadow=0;sketch=0;" parent="1" vertex="1">
          <mxGeometry x="230" y="530" width="40" height="20" as="geometry" />
        </mxCell>
        <mxCell id="AqXAOichn9QFWr-ijvlr-95" value="N" style="text;html=1;strokeColor=none;fillColor=none;align=center;verticalAlign=middle;whiteSpace=wrap;rounded=0;shadow=0;sketch=0;" parent="1" vertex="1">
          <mxGeometry x="300" y="465" width="40" height="20" as="geometry" />
        </mxCell>
        <mxCell id="AqXAOichn9QFWr-ijvlr-96" value="" style="endArrow=none;html=1;entryX=0;entryY=0.5;entryDx=0;entryDy=0;exitX=1;exitY=1;exitDx=0;exitDy=0;" parent="1" source="AqXAOichn9QFWr-ijvlr-41" target="AqXAOichn9QFWr-ijvlr-28" edge="1">
          <mxGeometry width="50" height="50" relative="1" as="geometry">
            <mxPoint x="350" y="450" as="sourcePoint" />
            <mxPoint x="400" y="400" as="targetPoint" />
          </mxGeometry>
        </mxCell>
        <mxCell id="AqXAOichn9QFWr-ijvlr-98" value="" style="shape=link;html=1;entryX=0;entryY=1;entryDx=0;entryDy=0;exitX=0.5;exitY=0;exitDx=0;exitDy=0;" parent="1" source="vDP7xoUG89gKsWGuL8XM-2" target="AqXAOichn9QFWr-ijvlr-88" edge="1">
          <mxGeometry width="100" relative="1" as="geometry">
            <mxPoint x="245" y="565" as="sourcePoint" />
            <mxPoint x="420" y="420" as="targetPoint" />
          </mxGeometry>
        </mxCell>
        <mxCell id="AqXAOichn9QFWr-ijvlr-100" value="" style="shape=link;html=1;exitX=0;exitY=0.5;exitDx=0;exitDy=0;entryX=1;entryY=0.5;entryDx=0;entryDy=0;" parent="1" source="AqXAOichn9QFWr-ijvlr-81" target="AqXAOichn9QFWr-ijvlr-6" edge="1">
          <mxGeometry width="100" relative="1" as="geometry">
            <mxPoint x="320" y="420" as="sourcePoint" />
            <mxPoint x="420" y="420" as="targetPoint" />
          </mxGeometry>
        </mxCell>
        <mxCell id="AqXAOichn9QFWr-ijvlr-101" value="" style="shape=link;html=1;entryX=0;entryY=0.5;entryDx=0;entryDy=0;exitX=1;exitY=0.5;exitDx=0;exitDy=0;" parent="1" source="AqXAOichn9QFWr-ijvlr-81" target="AqXAOichn9QFWr-ijvlr-9" edge="1">
          <mxGeometry width="100" relative="1" as="geometry">
            <mxPoint x="320" y="420" as="sourcePoint" />
            <mxPoint x="420" y="420" as="targetPoint" />
          </mxGeometry>
        </mxCell>
        <mxCell id="AqXAOichn9QFWr-ijvlr-102" value="" style="shape=link;html=1;exitX=1;exitY=0.5;exitDx=0;exitDy=0;entryX=0;entryY=0.5;entryDx=0;entryDy=0;" parent="1" source="AqXAOichn9QFWr-ijvlr-68" target="AqXAOichn9QFWr-ijvlr-71" edge="1">
          <mxGeometry width="100" relative="1" as="geometry">
            <mxPoint x="440" y="199.58" as="sourcePoint" />
            <mxPoint x="540" y="199.58" as="targetPoint" />
          </mxGeometry>
        </mxCell>
        <mxCell id="AqXAOichn9QFWr-ijvlr-103" value="" style="shape=link;html=1;exitX=0.5;exitY=1;exitDx=0;exitDy=0;entryX=0.5;entryY=0;entryDx=0;entryDy=0;" parent="1" source="AqXAOichn9QFWr-ijvlr-71" target="AqXAOichn9QFWr-ijvlr-75" edge="1">
          <mxGeometry width="100" relative="1" as="geometry">
            <mxPoint x="320" y="350" as="sourcePoint" />
            <mxPoint x="420" y="350" as="targetPoint" />
          </mxGeometry>
        </mxCell>
        <mxCell id="AqXAOichn9QFWr-ijvlr-104" value="" style="shape=link;html=1;entryX=0.5;entryY=1;entryDx=0;entryDy=0;exitX=0.5;exitY=0;exitDx=0;exitDy=0;" parent="1" source="AqXAOichn9QFWr-ijvlr-10" target="AqXAOichn9QFWr-ijvlr-75" edge="1">
          <mxGeometry width="100" relative="1" as="geometry">
            <mxPoint x="320" y="350" as="sourcePoint" />
            <mxPoint x="420" y="350" as="targetPoint" />
          </mxGeometry>
        </mxCell>
        <mxCell id="vDP7xoUG89gKsWGuL8XM-2" value="&lt;b&gt;&lt;u&gt;Name&lt;/u&gt;&lt;/b&gt;&lt;br&gt;Address" style="shape=internalStorage;whiteSpace=wrap;html=1;backgroundOutline=1;dx=0;dy=20;" vertex="1" parent="1">
          <mxGeometry x="180" y="570" width="120" height="80" as="geometry" />
        </mxCell>
        <mxCell id="vDP7xoUG89gKsWGuL8XM-3" value="Company" style="text;html=1;strokeColor=none;fillColor=none;align=center;verticalAlign=middle;whiteSpace=wrap;rounded=0;" vertex="1" parent="1">
          <mxGeometry x="220" y="570" width="40" height="20" as="geometry" />
        </mxCell>
      </root>
    </mxGraphModel>
  </diagram>
</mxfile>
